<svg width="24" height="24" viewBox="0 0 24 24" fill="none" xmlns="http://www.w3.org/2000/svg">
<path d="M6.86153 10.5575C7.00966 10.6202 7.17498 10.6297 7.32932 10.5843C7.48366 10.5389 7.61748 10.4414 7.70798 10.3083C7.79848 10.1753 7.84005 10.015 7.82562 9.85477C7.8112 9.69453 7.74165 9.54425 7.62885 9.42953C7.51604 9.31481 7.36695 9.24275 7.20698 9.22563C7.047 9.20851 6.88604 9.24738 6.75151 9.33563C6.61698 9.42387 6.51721 9.55604 6.46919 9.70959C6.42118 9.86315 6.42789 10.0286 6.48818 10.1778C6.5223 10.2626 6.57285 10.3397 6.63693 10.4049C6.701 10.4701 6.77733 10.5219 6.86153 10.5575Z" fill="#505A73"/>
<path d="M14.3649 6.49281C14.2168 6.42992 14.0514 6.42034 13.897 6.46572C13.7426 6.51109 13.6087 6.6086 13.5181 6.74163C13.4275 6.87467 13.3859 7.03499 13.4002 7.19529C13.4146 7.35559 13.4841 7.50595 13.597 7.62073C13.7098 7.73552 13.8589 7.80764 14.0189 7.82481C14.1789 7.84197 14.34 7.80312 14.4745 7.71486C14.6091 7.62661 14.709 7.49442 14.757 7.34082C14.8051 7.18721 14.7984 7.0217 14.7381 6.87249C14.6689 6.70148 14.5347 6.56492 14.3649 6.49281Z" fill="#505A73"/>
<path d="M10.1887 16.2368C10.0406 16.174 9.87527 16.1645 9.7209 16.2099C9.56653 16.2553 9.43269 16.3529 9.34217 16.4859C9.25165 16.6189 9.21006 16.7792 9.22448 16.9395C9.2389 17.0998 9.30844 17.2501 9.42126 17.3648C9.53407 17.4795 9.68318 17.5516 9.84317 17.5688C10.0032 17.5859 10.1642 17.547 10.2987 17.4588C10.4332 17.3705 10.533 17.2383 10.581 17.0847C10.6291 16.9312 10.6224 16.7657 10.5621 16.6165C10.4929 16.4455 10.3586 16.3089 10.1887 16.2368Z" fill="#505A73"/>
<path d="M16.8762 9.2207C16.7872 9.22065 16.699 9.23784 16.6166 9.27134C16.4562 9.33612 16.3258 9.45832 16.2507 9.6141C16.1755 9.76988 16.1612 9.94805 16.2103 10.1139C16.2595 10.2797 16.3687 10.4212 16.5166 10.5108C16.6645 10.6005 16.8405 10.6318 17.0102 10.5987C17.1799 10.5656 17.3313 10.4704 17.4346 10.3318C17.538 10.1931 17.586 10.0209 17.5692 9.84881C17.5525 9.67669 17.4722 9.51697 17.3441 9.40084C17.2159 9.28471 17.0491 9.22048 16.8762 9.2207Z" fill="#505A73"/>
<path d="M19.8423 10.404C19.4354 8.40723 18.282 6.64096 16.6175 5.46549C14.9529 4.29001 12.9026 3.79391 10.8847 4.07838C8.8669 4.36284 7.03363 5.40645 5.75891 6.99629C4.48418 8.58614 3.86405 10.6024 4.02502 12.6338C4.17197 14.3619 4.87219 15.9965 6.02175 17.2951C7.1713 18.5937 8.70893 19.487 10.4064 19.8425C10.8055 19.9262 11.2105 19.9786 11.6177 19.9991C11.8041 20.0058 11.99 19.9746 12.164 19.9075C12.3381 19.8405 12.4967 19.7389 12.6305 19.6088C12.7642 19.4788 12.8703 19.3231 12.9422 19.151C13.0142 18.9789 13.0506 18.794 13.0492 18.6075V15.1369C13.049 14.8628 13.1029 14.5913 13.2077 14.338C13.3125 14.0846 13.4662 13.8544 13.66 13.6605C13.8538 13.4666 14.0839 13.3128 14.3372 13.2079C14.5904 13.1029 14.8619 13.0489 15.136 13.0488H18.6116C18.7978 13.0502 18.9823 13.0139 19.154 12.942C19.3257 12.8701 19.4811 12.7643 19.6108 12.6307C19.7405 12.4972 19.8419 12.3388 19.9087 12.1651C19.9756 11.9913 20.0065 11.8058 19.9998 11.6198C19.9792 11.211 19.9266 10.8045 19.8423 10.404ZM9.39575 5.84225C9.65099 5.73912 9.93108 5.71399 10.2006 5.77005C10.4701 5.8261 10.717 5.96082 10.9099 6.15717C11.1029 6.35352 11.2332 6.60267 11.2846 6.87313C11.3359 7.14358 11.3059 7.42319 11.1984 7.67659C11.0908 7.92998 10.9105 8.14579 10.6803 8.29672C10.45 8.44765 10.1802 8.52691 9.90495 8.52449C9.62968 8.52207 9.3613 8.43808 9.13377 8.28313C8.90623 8.12818 8.72975 7.90924 8.62665 7.65399C8.48873 7.31172 8.49225 6.92871 8.63645 6.58903C8.78064 6.24936 9.05373 5.98078 9.39575 5.84225ZM5.8519 9.37298C5.97771 9.07662 6.20239 8.83304 6.48766 8.68376C6.77293 8.53447 7.10113 8.48872 7.41635 8.5543C7.73157 8.61987 8.0143 8.79272 8.21637 9.04338C8.41843 9.29404 8.52733 9.60702 8.52451 9.92897C8.5217 10.2509 8.40733 10.5619 8.2009 10.809C7.99448 11.0561 7.70877 11.224 7.39245 11.284C7.07613 11.3441 6.74878 11.2926 6.46617 11.1383C6.18356 10.9841 5.96317 10.7366 5.84257 10.4381C5.77357 10.2688 5.73887 10.0874 5.74047 9.90459C5.74207 9.72176 5.77995 9.54107 5.8519 9.37298ZM7.65431 15.3833C7.39909 15.4864 7.11902 15.5115 6.84952 15.4555C6.58003 15.3994 6.33321 15.2647 6.14028 15.0683C5.94734 14.872 5.81697 14.6229 5.76563 14.3524C5.71429 14.082 5.74431 13.8024 5.85187 13.549C5.95943 13.2956 6.13971 13.0798 6.36992 12.9289C6.60012 12.778 6.86991 12.6987 7.14517 12.7012C7.42042 12.7036 7.68878 12.7875 7.91631 12.9425C8.14383 13.0974 8.32031 13.3163 8.42341 13.5716C8.49301 13.7409 8.5283 13.9223 8.52725 14.1054C8.52619 14.2885 8.48881 14.4695 8.41727 14.6381C8.34573 14.8066 8.24146 14.9592 8.11049 15.0872C7.97952 15.2151 7.82447 15.3157 7.65431 15.3833ZM11.1982 17.4207C11.0724 17.7171 10.8477 17.9607 10.5624 18.11C10.2772 18.2593 9.94895 18.3051 9.63373 18.2395C9.3185 18.1739 9.03576 18.0011 8.83368 17.7504C8.6316 17.4998 8.5227 17.1868 8.52552 16.8648C8.52834 16.5428 8.64271 16.2318 8.84914 15.9847C9.05558 15.7376 9.3413 15.5698 9.65763 15.5097C9.97396 15.4497 10.3013 15.5012 10.5839 15.6555C10.8665 15.8098 11.0869 16.0573 11.2075 16.3558C11.2765 16.5251 11.3112 16.7064 11.3096 16.8892C11.308 17.072 11.2701 17.2527 11.1982 17.4207ZM14.6145 8.42309C14.316 8.54364 13.9849 8.55696 13.6777 8.46078C13.3704 8.36459 13.106 8.16485 12.9295 7.89559C12.753 7.62633 12.6754 7.3042 12.7098 6.98409C12.7441 6.66399 12.8884 6.3657 13.1181 6.14006C13.3477 5.91443 13.6485 5.77539 13.9692 5.74665C14.2898 5.7179 14.6105 5.80123 14.8767 5.98243C15.1428 6.16363 15.3378 6.4315 15.4286 6.74039C15.5194 7.04927 15.5002 7.38008 15.3744 7.67644C15.3032 7.84479 15.1993 7.99741 15.0689 8.12554C14.9385 8.25367 14.7841 8.35479 14.6145 8.42309ZM17.3986 11.2072C17.1434 11.3103 16.8633 11.3354 16.5938 11.2793C16.3243 11.2232 16.0775 11.0885 15.8846 10.8922C15.6917 10.6959 15.5613 10.4467 15.51 10.1763C15.4586 9.90587 15.4886 9.62629 15.5962 9.37292C15.7037 9.11954 15.884 8.90375 16.1142 8.75282C16.3444 8.6019 16.6142 8.52262 16.8894 8.52501C17.1647 8.5274 17.433 8.61135 17.6605 8.76626C17.8881 8.92116 18.0646 9.14005 18.1677 9.39526C18.2373 9.5646 18.2726 9.74608 18.2716 9.92917C18.2705 10.1123 18.2332 10.2933 18.1616 10.4619C18.0901 10.6304 17.9858 10.7831 17.8548 10.911C17.7238 11.0389 17.5688 11.1396 17.3986 11.2072Z" fill="#505A73"/>
<path d="M10.178 7.77726C10.3056 7.72571 10.415 7.63748 10.4925 7.52374C10.5699 7.41 10.6119 7.27585 10.6131 7.13825C10.6143 7.00066 10.5746 6.86581 10.4992 6.75074C10.4237 6.63568 10.3158 6.54557 10.1892 6.49181C10.0625 6.43806 9.92276 6.42307 9.78758 6.44874C9.6524 6.47441 9.52787 6.5396 9.42973 6.63605C9.33159 6.7325 9.26426 6.85588 9.23625 6.9906C9.20824 7.12531 9.2208 7.26531 9.27235 7.39288C9.34165 7.56382 9.47593 7.70029 9.64572 7.77235C9.81551 7.8444 10.007 7.84617 10.178 7.77726Z" fill="#505A73"/>
<path d="M7.13229 13.3975C6.98334 13.3977 6.83838 13.4457 6.71875 13.5344C6.59911 13.6231 6.51111 13.7479 6.4677 13.8904C6.42429 14.0329 6.42776 14.1855 6.47759 14.3259C6.52743 14.4663 6.621 14.5869 6.74455 14.6701C6.86809 14.7534 7.01508 14.7947 7.16388 14.7881C7.31269 14.7816 7.45546 14.7274 7.57118 14.6336C7.6869 14.5398 7.76947 14.4114 7.80673 14.2672C7.84399 14.123 7.83398 13.9706 7.77817 13.8325C7.7268 13.7034 7.63767 13.5928 7.52244 13.5152C7.4072 13.4376 7.27123 13.3966 7.13229 13.3975Z" fill="#505A73"/>
</svg>
