<svg width="25" height="25" viewBox="0 0 25 25" fill="none" xmlns="http://www.w3.org/2000/svg">
<g clip-path="url(#clip0_5441_65285)">
<path d="M17.3194 0.444197C17.0948 0.163433 16.7548 0 16.3952 0H8.67924L8.00195 1.97257V2.76159H18.5422L17.9109 1.18354L17.3194 0.444197Z" fill="#C38C66"/>
<path d="M8.67961 0H8.06491C7.70536 0 7.36531 0.163433 7.14073 0.444197L5.91797 1.97257V2.76159H18.5425V1.97257L17.9113 1.18354H9.86315C9.20951 1.18354 8.67961 0.653636 8.67961 0Z" fill="#B57F5F"/>
<path d="M18.9373 2.76172H7.09959L6.70508 3.55074L8.2281 23.7304C8.25915 24.142 8.60216 24.4601 9.01488 24.4601H17.022C17.4348 24.4601 17.7778 24.142 17.8089 23.7304L18.1409 19.3314L17.7564 18.6636L18.2346 18.0904L19.2724 4.33977L18.9373 2.76172Z" fill="#FFE09F"/>
<path d="M19.272 4.33977L19.3315 3.55074L18.937 2.76172H5.52342L5.12891 3.55074L6.65192 23.7304C6.68298 24.142 7.02599 24.4601 7.4387 24.4601H9.01451L8.72347 20.604C8.67164 19.9172 9.21492 19.3314 9.90367 19.3314H18.1405L18.2596 17.7533H8.50835L7.59206 5.61236C7.54022 4.92557 8.0835 4.33972 8.77225 4.33972H19.272V4.33977Z" fill="#F6D190"/>
<path d="M20.0533 2.76154C19.8907 2.30191 19.4524 1.97266 18.9371 1.97266H8.67963C8.026 1.97266 7.49609 3.15619 7.49609 3.15619C7.49609 3.37409 19.7785 3.06156 19.7785 3.06156L20.0533 2.76154Z" fill="#C38C66"/>
<path d="M8.5675 18.5426H18.625C18.8314 18.5426 19.0029 18.3836 19.0184 18.1778L19.7925 7.92032C19.8098 7.69139 19.6287 7.49609 19.3991 7.49609H7.73381L7.02246 14.4279L8.5675 18.5426Z" fill="#D19A6E"/>
<path d="M13.3352 10.126L12.5775 9.88798C12.4638 9.87169 12.3479 9.86328 12.2303 9.86328C10.7051 9.86328 9.46875 11.2763 9.46875 13.0194C9.46875 14.5773 10.4564 15.8716 11.7552 16.129L12.6986 16.1303C14.0008 15.8761 14.992 14.58 14.992 13.0194C14.992 11.7253 14.3104 10.6131 13.3352 10.126Z" fill="#966A5B"/>
<path d="M8.6795 1.97266H5.52335C4.87286 1.97266 4.34492 2.49745 4.33986 3.14674C4.33814 3.36769 4.51337 3.55071 4.73432 3.55071H19.7259C19.9359 3.55071 20.1163 3.38527 20.1202 3.17535C20.123 3.02917 20.0988 2.89134 20.0528 2.76168H9.46852C9.03273 2.76168 8.6795 2.40845 8.6795 1.97266Z" fill="#B57F5F"/>
<path d="M7.73383 7.49609H5.06053C4.83097 7.49609 4.64986 7.69134 4.66716 7.92032L5.44128 18.1778C5.45681 18.3835 5.62831 18.5426 5.83465 18.5426H8.56757L7.73383 7.49609Z" fill="#C38C66"/>
<path d="M13.3353 10.1257C13.0982 10.0072 12.8438 9.92591 12.5776 9.8877C12.4729 10.5186 12.2102 10.905 11.9064 11.3432C11.5034 11.9242 11.0469 12.5826 11.0469 13.844C11.0469 14.9499 11.3972 15.5954 11.7553 16.1287C11.9097 16.1593 12.0683 16.1753 12.2304 16.1753C12.3896 16.1753 12.5468 16.1596 12.6987 16.1301C12.6891 16.1084 12.6831 16.0822 12.6693 16.062L12.5548 15.8959C12.1692 15.3396 11.8359 14.8588 11.8359 13.844C11.8359 12.8295 12.1692 12.3491 12.5548 11.7928C12.8542 11.3608 13.1886 10.871 13.3353 10.1257Z" fill="#785353"/>
</g>
<defs>
<clipPath id="clip0_5441_65285">
<rect width="24.46" height="24.46" fill="white"/>
</clipPath>
</defs>
</svg>
