<svg width="24" height="24" viewBox="0 0 24 24" fill="none" xmlns="http://www.w3.org/2000/svg">
<path d="M10.1666 4H5.16662C4.52331 4 4 4.52331 4 5.16662V8.16662C4 8.81005 4.52331 9.33336 5.16662 9.33336H10.1666C10.81 9.33336 11.3334 8.81005 11.3334 8.16662V5.16662C11.3334 4.52331 10.81 4 10.1666 4Z" fill="#505A73"/>
<path d="M10.1666 10.667H5.16662C4.52331 10.667 4 11.1903 4 11.8337V18.8337C4 19.477 4.52331 20.0003 5.16662 20.0003H10.1666C10.81 20.0003 11.3334 19.477 11.3334 18.8337V11.8337C11.3334 11.1903 10.81 10.667 10.1666 10.667Z" fill="#505A73"/>
<path d="M18.8337 14.667H13.8337C13.1903 14.667 12.667 15.1903 12.667 15.8337V18.8337C12.667 19.477 13.1903 20.0004 13.8337 20.0004H18.8337C19.477 20.0004 20.0003 19.477 20.0003 18.8337V15.8337C20.0003 15.1903 19.477 14.667 18.8337 14.667Z" fill="#505A73"/>
<path d="M18.8337 4H13.8337C13.1903 4 12.667 4.52331 12.667 5.16662V12.1666C12.667 12.81 13.1903 13.3334 13.8337 13.3334H18.8337C19.477 13.3334 20.0003 12.81 20.0003 12.1666V5.16662C20.0003 4.52331 19.477 4 18.8337 4V4Z" fill="#505A73"/>
</svg>
