<svg width="36" height="36" viewBox="0 0 36 36" fill="none" xmlns="http://www.w3.org/2000/svg">
<rect width="36" height="36" rx="18" fill="#E1E4EB"/>
<path d="M24.4 12.6805H21V11.9405C21 11.4205 20.52 11.0205 19.92 11.0205H16.08C15.48 11.0205 15 11.4205 15 11.9405V12.6805H11.6C11.26 12.6805 11 12.9405 11 13.2805C11 13.6205 11.26 13.8805 11.6 13.8805H12.34L13.08 23.2005C13.1 24.3005 13.98 25.1805 15.08 25.1805H20.9C22 25.1805 22.88 24.3005 22.9 23.2005L23.66 13.9005H24.4C24.74 13.9005 25 13.6405 25 13.3005C25 12.9605 24.74 12.6805 24.4 12.6805ZM16.2 12.2205H19.8V12.6805H16.2V12.2205ZM16.44 21.9605H16.42C16.1 21.9605 15.84 21.7005 15.82 21.3805L15.6 16.5005C15.58 16.1605 15.84 15.8805 16.18 15.8805H16.2C16.52 15.8805 16.78 16.1405 16.8 16.4605L17.02 21.3405C17.02 21.6605 16.78 21.9405 16.44 21.9605ZM20.18 21.3805C20.16 21.7005 19.9 21.9605 19.58 21.9605H19.56C19.22 21.9405 18.98 21.6605 18.98 21.3405L19.2 16.4605C19.22 16.1405 19.48 15.8805 19.8 15.8805H19.82C20.16 15.9005 20.4 16.1805 20.4 16.5005L20.18 21.3805Z" fill="#505A73"/>
</svg>
