<svg width="24" height="24" viewBox="0 0 24 24" fill="none" xmlns="http://www.w3.org/2000/svg">
<path d="M14.5331 9.33333C14.5331 9.92 14.0531 10.4 13.4665 10.4H3.86647C3.2798 10.4 2.7998 9.92 2.7998 9.33333C2.7998 8.74667 3.2798 8.26667 3.86647 8.26667H13.4665C14.0531 8.26667 14.5331 8.74667 14.5331 9.33333ZM2.7998 5.06667C2.7998 5.65333 3.2798 6.13333 3.86647 6.13333H13.4665C14.0531 6.13333 14.5331 5.65333 14.5331 5.06667C14.5331 4.48 14.0531 4 13.4665 4H3.86647C3.2798 4 2.7998 4.48 2.7998 5.06667ZM10.2665 13.6C10.2665 13.0133 9.78647 12.5333 9.19981 12.5333H3.86647C3.2798 12.5333 2.7998 13.0133 2.7998 13.6C2.7998 14.1867 3.2798 14.6667 3.86647 14.6667H9.19981C9.78647 14.6667 10.2665 14.1867 10.2665 13.6ZM18.8105 11.328L19.5678 10.5707C19.9838 10.1547 20.6558 10.1547 21.0718 10.5707L21.8291 11.328C22.2451 11.744 22.2451 12.416 21.8291 12.832L21.0718 13.5893L18.8105 11.328ZM18.0531 12.0853L12.5491 17.5893C12.4531 17.6853 12.3998 17.8133 12.3998 17.9627V19.4667C12.3998 19.7653 12.6345 20 12.9331 20H14.4371C14.5758 20 14.7145 19.9467 14.8105 19.84L20.3145 14.336L18.0531 12.0853Z" fill="#505A73"/>
</svg>
