<svg width="36" height="36" viewBox="0 0 36 36" fill="none" xmlns="http://www.w3.org/2000/svg">
<circle cx="18" cy="18" r="18" fill="url(#paint0_linear_5441_65131)"/>
<path d="M12 26H18V20.5H16V18H18V16C18 14.3427 19.3427 13 21 13H23V15.5H22C21.448 15.5 21 15.448 21 16V18H23.5L22.5 20.5H21V26H24C25.1027 26 26 25.1027 26 24V12C26 10.8967 25.1027 10 24 10H12C10.8967 10 10 10.8967 10 12V24C10 25.1027 10.8967 26 12 26Z" fill="white"/>
<defs>
<linearGradient id="paint0_linear_5441_65131" x1="2.175" y1="34.1073" x2="34.7545" y2="2.854" gradientUnits="userSpaceOnUse">
<stop stop-color="#EB3349"/>
<stop offset="1" stop-color="#F45C43"/>
</linearGradient>
</defs>
</svg>
