<svg width="36" height="36" viewBox="0 0 36 36" fill="none" xmlns="http://www.w3.org/2000/svg">
<circle cx="18" cy="18" r="18" fill="url(#paint0_linear_5441_65144)"/>
<g clip-path="url(#clip0_5441_65144)">
<path d="M18.0028 13.8916C15.7341 13.8916 13.8975 15.7303 13.8975 17.9969C13.8975 20.2656 15.7361 22.1023 18.0028 22.1023C20.2715 22.1023 22.1081 20.2636 22.1081 17.9969C22.1081 15.7283 20.2695 13.8916 18.0028 13.8916ZM18.0028 20.6616C16.5301 20.6616 15.3381 19.4689 15.3381 17.9969C15.3381 16.5249 16.5308 15.3323 18.0028 15.3323C19.4748 15.3323 20.6675 16.5249 20.6675 17.9969C20.6681 19.4689 19.4755 20.6616 18.0028 20.6616Z" fill="white"/>
<path d="M21.2978 10.0503C19.8258 9.98159 16.1798 9.98492 14.7065 10.0503C13.4118 10.1109 12.2698 10.4236 11.3492 11.3443C9.81051 12.8829 10.0072 14.9563 10.0072 17.9969C10.0072 21.1089 9.83384 23.1343 11.3492 24.6496C12.8938 26.1936 14.9972 25.9916 18.0018 25.9916C21.0845 25.9916 22.1485 25.9936 23.2385 25.5716C24.7205 24.9963 25.8392 23.6716 25.9485 21.2923C26.0178 19.8196 26.0138 16.1743 25.9485 14.7009C25.8165 11.8923 24.3092 10.1889 21.2978 10.0503ZM23.6278 23.6316C22.6192 24.6403 21.2198 24.5503 17.9825 24.5503C14.6492 24.5503 13.3125 24.5996 12.3372 23.6216C11.2138 22.5036 11.4172 20.7083 11.4172 17.9863C11.4172 14.3029 11.0392 11.6503 14.7358 11.4609C15.5852 11.4309 15.8352 11.4209 17.9732 11.4209L18.0032 11.4409C21.5558 11.4409 24.3432 11.0689 24.5105 14.7649C24.5485 15.6083 24.5572 15.8616 24.5572 17.9963C24.5565 21.2909 24.6192 22.6356 23.6278 23.6316Z" fill="white"/>
<path d="M22.2709 14.6892C22.8007 14.6892 23.2302 14.2597 23.2302 13.7298C23.2302 13.2 22.8007 12.7705 22.2709 12.7705C21.741 12.7705 21.3115 13.2 21.3115 13.7298C21.3115 14.2597 21.741 14.6892 22.2709 14.6892Z" fill="white"/>
</g>
<defs>
<linearGradient id="paint0_linear_5441_65144" x1="2.175" y1="34.1073" x2="34.7545" y2="2.854" gradientUnits="userSpaceOnUse">
<stop stop-color="#EB3349"/>
<stop offset="1" stop-color="#F45C43"/>
</linearGradient>
<clipPath id="clip0_5441_65144">
<rect width="16" height="16" fill="white" transform="translate(10 10)"/>
</clipPath>
</defs>
</svg>
