<svg width="36" height="36" viewBox="0 0 36 36" fill="none" xmlns="http://www.w3.org/2000/svg">
<rect width="36" height="36" rx="18" fill="#E1E4EB"/>
<path d="M24.5817 17.7945L22.8426 16.0554C22.7597 15.9725 22.6345 15.9482 22.5266 15.9928C22.4182 16.0375 22.3475 16.1435 22.3475 16.2606V17.1302H18.8693V13.652H19.7388C19.8559 13.652 19.962 13.5812 20.0067 13.4728C20.0513 13.3644 20.0264 13.2398 19.9441 13.1569L18.2049 11.4178C18.0919 11.3047 17.9081 11.3047 17.7951 11.4178L16.056 13.1569C15.9731 13.2404 15.9482 13.3644 15.9928 13.4728C16.0375 13.5812 16.1435 13.652 16.2606 13.652H17.1302V17.1302H13.652V16.2606C13.652 16.1435 13.5812 16.0375 13.4728 15.9928C13.3662 15.9476 13.2404 15.9725 13.1569 16.0554L11.4178 17.7945C11.3047 17.9076 11.3047 18.0913 11.4178 18.2044L13.1569 19.9435C13.2404 20.027 13.3656 20.0525 13.4728 20.0061C13.5812 19.9621 13.652 19.856 13.652 19.7389V18.8693H17.1302V22.3475H16.2606C16.1435 22.3475 16.0375 22.4182 15.9928 22.5266C15.9482 22.635 15.9731 22.7597 16.0554 22.8426L17.7945 24.5817C17.8513 24.6379 17.9255 24.6663 17.9997 24.6663C18.0739 24.6663 18.1481 24.6379 18.2049 24.5817L19.9441 22.8426C20.027 22.7597 20.0519 22.6351 20.0067 22.5266C19.9614 22.4182 19.8559 22.3475 19.7388 22.3475H18.8693V18.8693H22.3475V19.7389C22.3475 19.8559 22.4182 19.962 22.5266 20.0067C22.6339 20.0525 22.7597 20.027 22.8426 19.9441L24.5817 18.205C24.6947 18.0913 24.6947 17.9082 24.5817 17.7945Z" fill="#505A73"/>
</svg>
