<svg width="36" height="36" viewBox="0 0 36 36" fill="none" xmlns="http://www.w3.org/2000/svg">
<circle cx="18" cy="18" r="18" fill="url(#paint0_linear_5441_65140)"/>
<path d="M23.8522 23.123C24.4602 23.0277 25.7182 22.8077 25.9589 22.2537C26.0802 21.9684 25.9069 21.7364 25.6856 21.701V21.7004C23.5469 21.3484 22.5829 19.1577 22.5436 19.0644C21.9509 18.0017 23.5596 18.1804 24.1922 17.5324C24.8096 16.897 23.8196 16.209 23.2002 16.501C22.9462 16.6204 22.5656 16.759 22.3122 16.643C22.3722 15.637 22.5382 13.969 22.1309 13.0584C20.7609 9.98969 16.7209 9.87902 14.8436 11.6604C13.3642 13.063 13.5456 14.505 13.6842 16.643C13.2242 16.8437 12.7696 16.445 12.4382 16.445C12.0902 16.445 11.6856 16.671 11.6202 17.0117C11.5376 17.459 12.0236 17.747 12.4442 17.913C13.1609 18.1944 13.8422 18.2777 13.4642 19.0457C13.4609 19.0517 13.4582 19.0577 13.4562 19.0637C12.9209 20.2864 11.7522 21.4617 10.3136 21.699C10.0816 21.737 9.9229 21.9817 10.0389 22.2517V22.253C10.2769 22.8077 11.5469 23.0297 12.1462 23.123C12.3316 23.4697 12.1896 24.1544 12.7636 24.1544C12.9869 24.1544 13.4189 24.0084 13.9702 24.0084C14.7736 24.0084 15.0476 24.1837 15.6916 24.6384C16.3529 25.1057 17.0796 25.5624 17.9829 25.4964C18.9236 25.555 19.6222 25.1224 20.3076 24.6397L20.3082 24.6384C20.9762 24.1684 21.4536 23.821 22.8682 24.099C23.9149 24.3017 23.6096 23.593 23.8522 23.123Z" fill="white"/>
<defs>
<linearGradient id="paint0_linear_5441_65140" x1="2.175" y1="34.1073" x2="34.7545" y2="2.854" gradientUnits="userSpaceOnUse">
<stop stop-color="#EB3349"/>
<stop offset="1" stop-color="#F45C43"/>
</linearGradient>
</defs>
</svg>
