<svg width="24" height="24" viewBox="0 0 24 24" fill="none" xmlns="http://www.w3.org/2000/svg">
<path d="M18.8508 17.2847C18.3608 14.6308 16.054 12.6914 13.3593 12.6914H10.5625C7.80648 12.6914 5.47922 14.692 5.03009 17.4072C4.80553 18.775 5.86709 19.9998 7.23487 19.9998H16.6664C18.0546 19.9998 19.1162 18.7341 18.8712 17.3664L18.8508 17.2847Z" fill="#505A73"/>
<path d="M9.09216 10.5075C10.6845 12.0998 13.2567 12.1407 14.8899 10.5892L14.9307 10.5483C16.3394 9.20097 16.4823 7.0166 15.237 5.50592C13.5426 3.46446 10.3987 3.50529 8.76553 5.58758C7.62231 7.05743 7.74479 9.16014 9.07175 10.4871L9.09216 10.5075Z" fill="#505A73"/>
</svg>
