<svg width="36" height="36" viewBox="0 0 36 36" fill="none" xmlns="http://www.w3.org/2000/svg">
<circle cx="18" cy="18" r="18" fill="url(#paint0_linear_5441_65135)"/>
<g clip-path="url(#clip0_5441_65135)">
<path d="M21.6714 19.5384L21.6654 19.5884C20.1994 18.8578 20.0461 18.7604 19.8568 19.0444C19.7254 19.2411 19.3428 19.6871 19.2274 19.8191C19.1108 19.9491 18.9948 19.9591 18.7968 19.8691C18.5968 19.7691 17.9548 19.5591 17.1948 18.8791C16.6028 18.3491 16.2054 17.6991 16.0881 17.4991C15.8928 17.1618 16.3014 17.1138 16.6734 16.4098C16.7401 16.2698 16.7061 16.1598 16.6568 16.0604C16.6068 15.9604 16.2088 14.9804 16.0421 14.5898C15.8821 14.2004 15.7174 14.2498 15.5941 14.2498C15.2101 14.2164 14.9294 14.2218 14.6821 14.4791C13.6061 15.6618 13.8774 16.8818 14.7981 18.1791C16.6074 20.5471 17.5714 20.9831 19.3341 21.5884C19.8101 21.7398 20.2441 21.7184 20.5874 21.6691C20.9701 21.6084 21.7654 21.1884 21.9314 20.7184C22.1014 20.2484 22.1014 19.8584 22.0514 19.7684C22.0021 19.6784 21.8714 19.6284 21.6714 19.5384Z" fill="white"/>
<path d="M23.68 12.2996C18.554 7.34429 10.0707 10.9383 10.0673 17.929C10.0673 19.3263 10.4333 20.689 11.1307 21.8923L10 26.0003L14.2233 24.899C19.4933 27.7456 25.9973 23.9656 26 17.933C26 15.8156 25.1733 13.823 23.67 12.3256L23.68 12.2996ZM24.668 17.911C24.664 22.9996 19.078 26.1776 14.66 23.5803L14.42 23.4376L11.92 24.0876L12.59 21.6576L12.4307 21.4076C9.68133 17.031 12.84 11.311 18.048 11.311C19.8173 11.311 21.478 12.001 22.7287 13.251C23.9787 14.4903 24.668 16.151 24.668 17.911Z" fill="white"/>
</g>
<defs>
<linearGradient id="paint0_linear_5441_65135" x1="2.175" y1="34.1073" x2="34.7545" y2="2.854" gradientUnits="userSpaceOnUse">
<stop stop-color="#EB3349"/>
<stop offset="1" stop-color="#F45C43"/>
</linearGradient>
<clipPath id="clip0_5441_65135">
<rect width="16" height="16" fill="white" transform="translate(10 10)"/>
</clipPath>
</defs>
</svg>
